<svg xmlns="http://www.w3.org/2000/svg" width="256" height="256" viewBox="0 0 256 256"><rect width="256" height="256" rx="40" fill="#470137"/><path d="M130.77,79.67l-30,49.43,32,52.48a1.6,1.6,0,0,1,.16,1.21c-.11.38-.48.14-1.12.25H109c-1.61,0-2.73-.06-3.38-1.13q-3.23-6.28-6.44-12.48t-6.84-12.64q-3.62-6.43-7.16-13h-.16q-3.22,6.44-6.69,12.88t-6.84,12.8q-3.37,6.36-6.92,12.64c-.43,1-1.18,1.06-2.26,1.06H40.29c-.43,0-.67.17-.73-.26a1.67,1.67,0,0,1,.24-1.13l31.08-51L40.61,79.51c-.32-.43-.38-.78-.16-1.05a1.21,1.21,0,0,1,1-.4h22.7a3.41,3.41,0,0,1,1.45.24,2.85,2.85,0,0,1,1,.89Q69.42,85.63,73,92.07t7.16,12.72q3.63,6.27,6.69,12.72H87q3.21-6.6,6.52-12.88T100.26,92q3.46-6.36,6.68-12.64a2.45,2.45,0,0,1,.65-1,2.35,2.35,0,0,1,1.28-.24H130a.92.92,0,0,1,.81,1.61Z" fill="#ff61f6"/><path d="M177,185.13a49.92,49.92,0,0,1-21.49-4.51,34.14,34.14,0,0,1-15-13.61Q135,157.92,135,144.23a42,42,0,0,1,5.48-21.09,40.18,40.18,0,0,1,15.94-15.46q10.45-5.79,25.27-5.79c.54,0,1.24,0,2.1.08s1.87.14,3.06.24V70.49c0-.75.32-1.12,1-1.12h20.29a.84.84,0,0,1,1,.72,1,1,0,0,1,0,.24v95.15q0,2.75.24,6c.17,2.15.3,4.08.41,5.8a1.68,1.68,0,0,1-1,1.61,80,80,0,0,1-16.26,4.83A88.06,88.06,0,0,1,177,185.13Zm9.83-20V121.21a15.16,15.16,0,0,0-2.66-.48,30.38,30.38,0,0,0-3.3-.16,24.86,24.86,0,0,0-11.27,2.57,22,22,0,0,0-8.45,7.41q-3.31,4.83-3.3,12.72a28.24,28.24,0,0,0,1.69,10.3,19.54,19.54,0,0,0,4.5,7.08,17.2,17.2,0,0,0,6.77,4,26.45,26.45,0,0,0,8.29,1.29c1.5,0,2.89-.06,4.18-.16A17.2,17.2,0,0,0,186.8,165.16Z" fill="#ff61f6"/></svg>