<svg xmlns="http://www.w3.org/2000/svg" width="256" height="256" viewBox="0 0 256 256"><rect width="256" height="256" rx="40" fill="#000b1d"/><path d="M205.84,147.92c-12.12-12.88-45.63-7.64-53.49-6.33A136.47,136.47,0,0,1,130,112.11a130.94,130.94,0,0,0,7.64-38.64c0-11.79-4.69-24.46-17.79-24.46a13.27,13.27,0,0,0-11,6.45c-5.57,9.6-3.38,29.47,5.57,49.56-5.24,14.73-12.77,36-22.71,53.27-13.42,5.35-41.92,18.45-44.65,33a12.28,12.28,0,0,0,3.93,11.57A16.63,16.63,0,0,0,62.51,207c17.13,0,34.27-23.8,45.85-44.21a290.21,290.21,0,0,1,40.82-10.7c18.13,15.83,34.28,18.23,42.47,18.23,11.13,0,15.28-4.8,16.81-8.84A13.62,13.62,0,0,0,205.84,147.92Zm-11.79,8.3c-.54,3.16-4.58,6.33-12.12,4.69a60.48,60.48,0,0,1-23.79-12c5.89-1,19.65-2.29,29.36-.43C191,149.12,195,151.09,194.05,156.22ZM115.89,59.6a4.37,4.37,0,0,1,3.82-2.4c4.15,0,5,5,5,9.17a127.62,127.62,0,0,1-5.46,29.15C112.29,77,113.27,64.08,115.89,59.6Zm-1,90.72a272.34,272.34,0,0,0,10.8-26,137.65,137.65,0,0,0,14.85,19.43A245.74,245.74,0,0,0,114.91,150.32ZM87.5,169.1c-11,17.68-21.83,28.82-28.16,28.82a4.53,4.53,0,0,1-2.84-1,4.08,4.08,0,0,1-1.42-4C56.28,186.56,68.84,177.39,87.5,169.1Z" fill="#fff"/></svg>