<svg xmlns="http://www.w3.org/2000/svg" width="256" height="256" viewBox="0 0 256 256"><rect width="256" height="256" rx="40" fill="#00005b"/><path d="M105.92,158.13H68.73l-7.57,23.55a1.89,1.89,0,0,1-1.93,1.45H40.39c-1.07,0-1.45-.59-1.12-1.77L71.47,89c.32-1,.64-1.91,1-3.15a34.82,34.82,0,0,0,.65-6.52,1,1,0,0,1,.84-1.13H99.8q1.13,0,1.29.81l36.55,102.5c.32,1.07,0,1.61-1,1.61H115.74a1.49,1.49,0,0,1-1.61-1.13Zm-31.4-19.86H100c-.64-2.14-1.39-4.56-2.25-7.24s-1.77-5.56-2.74-8.62-1.93-6.11-2.9-9.17-1.85-6-2.65-8.86-1.53-5.44-2.18-7.81h-.16a127,127,0,0,1-3.38,12.88q-2.25,7.24-4.59,14.82T74.52,138.27Z" fill="#99f"/><path d="M196.89,149H165.17a22.61,22.61,0,0,0,3.06,8.87,16.47,16.47,0,0,0,7.32,6,30.63,30.63,0,0,0,12.8,2.51,58.48,58.48,0,0,0,10.39-1.14,37.91,37.91,0,0,0,8.93-2.33c.53-.43.8-.16.8.81V179a2.39,2.39,0,0,1-.24,1.21,2.28,2.28,0,0,1-.73.72,40.77,40.77,0,0,1-10,3,70.89,70.89,0,0,1-14.17,1.2q-11.43,0-19.16-3.54a34.12,34.12,0,0,1-12.56-9.5A37.13,37.13,0,0,1,144.72,159a51.69,51.69,0,0,1-2.09-14.57,50.86,50.86,0,0,1,2.49-15.86,41.45,41.45,0,0,1,7.49-13.68,35.87,35.87,0,0,1,12.08-9.5c4.72-2.31,10.3-3.14,16.74-3.14A36.45,36.45,0,0,1,197,105.27a27.4,27.4,0,0,1,10.54,8,36.41,36.41,0,0,1,6,11.35,40.29,40.29,0,0,1,1.93,12.23c0,2.37-.08,4.51-.24,6.44s-.3,3.33-.4,4.19a1.47,1.47,0,0,1-1.45,1.29q-1,0-3.3.24t-5.8.32C201.9,149.36,199.46,149,196.89,149ZM165.17,134.3h21.09c2.58,0,4.48,0,5.71-.08a5.69,5.69,0,0,0,2.34-.78v-1a13,13,0,0,0-.64-3.71,13.16,13.16,0,0,0-13-9.17,14,14,0,0,0-13.28,7.56A23.53,23.53,0,0,0,165.17,134.3Z" fill="#99f"/></svg>