<svg xmlns="http://www.w3.org/2000/svg" width="256" height="207.96" viewBox="0 0 256 207.96"><path d="M100.65,115.44c.93-16.64,9.08-31.3,21.37-41.69a72.5,72.5,0,0,1,92,0c12.28,10.39,20.43,25,21.37,41.67.94,17.1-5.94,33-18,44.76-12.3,12-29.78,19.49-49.36,19.49s-37.1-7.51-49.39-19.49C106.56,148.41,99.7,132.52,100.65,115.44Z" fill="#fff"/><path d="M133.45,116.93a30.22,30.22,0,0,1,11-21.4,37.2,37.2,0,0,1,47.19,0,30.26,30.26,0,0,1,11,21.39,29.68,29.68,0,0,1-9.24,23,37.08,37.08,0,0,1-50.66,0A29.67,29.67,0,0,1,133.45,116.93Z" fill="#265787"/><path d="M78.41,134.18a63.64,63.64,0,0,0,2.72,14.9,78.6,78.6,0,0,0,17,29.42,87.9,87.9,0,0,0,29.73,21.35,97.18,97.18,0,0,0,78.05-.14,88.33,88.33,0,0,0,29.7-21.43,79.31,79.31,0,0,0,17-29.47A74.06,74.06,0,0,0,255.25,116a76,76,0,0,0-10.83-29.64,82.87,82.87,0,0,0-19.76-21.79h0l-80-61.4L144.5,3c-5.25-4-14.07-4-19.84,0s-6.51,10.83-1.31,15.09l0,0,33.36,27.12L55,45.38h-.14c-8.4,0-16.48,5.52-18.08,12.49s4.07,13,12.8,13v0l51.53-.1L9.17,141.4l-.35.26c-8.68,6.64-11.48,17.69-6,24.68s17.34,7.12,26.1,0l50.18-41.07A78.34,78.34,0,0,0,78.41,134.18Zm129,18.57c-10.34,10.53-24.81,16.5-40.48,16.54s-30.16-5.9-40.5-16.41a48.18,48.18,0,0,1-11-17.31,44.79,44.79,0,0,1-2.54-19.33A45.69,45.69,0,0,1,118.33,98a50.25,50.25,0,0,1,12.3-14.63,58.45,58.45,0,0,1,72.48-.1,49.86,49.86,0,0,1,12.28,14.58,45.3,45.3,0,0,1,3,37.51A48.28,48.28,0,0,1,207.36,152.75Z" fill="#ea7600"/></svg>