<svg xmlns="http://www.w3.org/2000/svg" width="256" height="233.91" viewBox="0 0 256 233.91"><path d="M87.12,29.45A46.28,46.28,0,0,1,98,12.13a42.81,42.81,0,0,1,67.33,10c10.31,18.77,21.24,37.12,31.86,55.68,17.73,30.82,35.67,61.65,53.19,92.58,14.75,25.88-1.23,58.56-30.51,63-17.94,2.68-34.75-5.57-44-21.65q-23.34-40.66-46.8-81.24a9.13,9.13,0,0,0-1.14-1.65c-1.65-1.34-2.37-3.3-3.4-5-6.91-12.17-14-24.23-20.93-36.29-4.43-7.84-9.07-15.57-13.5-23.41a42.66,42.66,0,0,1-5.67-22.68c.3-4.12.82-8.25,2.68-12" fill="#3c8bd9"/><path d="M87.12,29.45a58.74,58.74,0,0,0-2,11.34A44.52,44.52,0,0,0,91.34,65q17,29.24,33.92,58.66c1,1.76,1.86,3.51,2.89,5.16-6.19,10.72-12.37,21.34-18.66,32.06-8.66,14.95-17.32,30-26.09,44.95-.41,0-.51-.2-.61-.51A6.14,6.14,0,0,1,83.2,203c4.23-15.47.72-29.18-9.9-40.93a39.24,39.24,0,0,0-24.23-12.48C36.7,147.81,25.77,151,16,158.74c-1.75,1.34-2.89,3.3-5,4.33a.69.69,0,0,1-.72-.52c4.95-8.55,9.79-17.11,14.74-25.67Q55.67,83.69,86.39,30.59c.21-.42.52-.73.73-1.14" fill="#fabc04"/><path d="M10.72,162.86c2-1.75,3.81-3.61,5.88-5.26,25-19.79,62.68-5.46,68.14,25.88a45.29,45.29,0,0,1-1.64,22,10.86,10.86,0,0,1-.42,1.75c-.92,1.65-1.75,3.41-2.78,5.06-9.18,15.15-22.68,22.68-40.42,21.54A42.31,42.31,0,0,1,.41,196.88a41.25,41.25,0,0,1,5.67-27.42c1-1.86,2.27-3.5,3.4-5.36.52-.41.31-1.24,1.24-1.24" fill="#34a852"/><path d="M10.72,162.86c-.41.41-.41,1.14-1.13,1.24-.11-.72.31-1.13.72-1.65l.41.41" fill="#fabc04"/><path d="M82.68,207.19c-.41-.72,0-1.23.42-1.75l.41.41-.83,1.34" fill="#e1c025"/></svg>