<svg xmlns="http://www.w3.org/2000/svg" xmlns:xlink="http://www.w3.org/1999/xlink" width="256" height="256" viewBox="0 0 256 256"><defs><radialGradient id="a" cx="-1158.11" cy="-394.05" r="127.98" gradientTransform="matrix(0, -1.98, -1.84, 0, -658.59, -2019.71)" gradientUnits="userSpaceOnUse"><stop offset="0" stop-color="#fd5"/><stop offset="0.1" stop-color="#fd5"/><stop offset="0.5" stop-color="#ff543e"/><stop offset="1" stop-color="#c837ab"/></radialGradient><radialGradient id="b" cx="-404.76" cy="605.93" r="127.98" gradientTransform="matrix(0.17, 0.87, 3.58, -0.72, -2142.81, 804.85)" gradientUnits="userSpaceOnUse"><stop offset="0" stop-color="#3771c8"/><stop offset="0.13" stop-color="#3771c8"/><stop offset="1" stop-color="#60f" stop-opacity="0"/></radialGradient></defs><path d="M128,0C74.6,0,59,.06,55.94.31,45,1.22,38.15,3,30.71,6.65A51,51,0,0,0,16,17.41Q3.82,30.06,1.18,48.54C.31,54.53.06,55.75,0,86.32c0,10.19,0,23.61,0,41.59,0,53.4.06,69,.31,72.05.89,10.67,2.56,17.38,6.11,24.72a53.9,53.9,0,0,0,34.94,28.55A90.51,90.51,0,0,0,60,255.69c3.17.14,35.48.24,67.81.24s64.66,0,67.75-.2c8.66-.4,13.69-1.08,19.25-2.52a53.57,53.57,0,0,0,34.95-28.6c3.47-7.17,5.24-14.14,6-24.25.18-2.21.25-37.37.25-72.48s-.08-70.21-.25-72.41c-.81-10.28-2.57-17.19-6.16-24.5a50.64,50.64,0,0,0-11-15c-8.46-8.08-18.82-13-31.16-14.79C201.49.31,200.3.05,169.7,0Z" fill="url(#a)"/><path d="M128,0C74.6,0,59,.06,55.94.31,45,1.22,38.15,3,30.71,6.65A50.9,50.9,0,0,0,16,17.42Q3.82,30.07,1.18,48.56C.31,54.54.06,55.77,0,86.35,0,96.54,0,110,0,128,0,181.36.07,197,.32,200c.89,10.67,2.56,17.39,6.11,24.74A53.93,53.93,0,0,0,41.37,253.3,90.51,90.51,0,0,0,60,255.76c3.17.14,35.48.24,67.81.24s64.66,0,67.75-.2c8.66-.4,13.69-1.08,19.25-2.52a53.59,53.59,0,0,0,34.95-28.61c3.47-7.17,5.24-14.14,6-24.26.18-2.21.25-37.37.25-72.49s-.08-70.23-.25-72.44c-.81-10.28-2.57-17.19-6.16-24.5a50.51,50.51,0,0,0-11-15c-8.46-8.09-18.82-13-31.16-14.8C201.49.31,200.3.05,169.7,0Z" fill="url(#b)"/><path d="M128,33.47c-25.66,0-28.88.11-39,.57S72.09,36.1,66.08,38.43A48.37,48.37,0,0,0,38.43,66.07C36.09,72.08,34.49,79,34,89s-.57,13.3-.57,39,.11,28.87.57,39,2.06,16.93,4.39,22.94a48.37,48.37,0,0,0,27.64,27.65c6,2.34,12.88,3.93,22.94,4.39s13.3.57,39,.57,28.88-.11,39-.57,16.94-2,22.95-4.39a48.45,48.45,0,0,0,27.64-27.65c2.32-6,3.91-12.88,4.39-22.93s.57-13.3.57-39-.12-28.89-.57-39-2.07-16.93-4.39-22.94a46.48,46.48,0,0,0-10.91-16.74,46.1,46.1,0,0,0-16.74-10.9c-6-2.33-12.89-3.93-23-4.39s-13.29-.57-39-.57Zm-8.48,17H128c25.24,0,28.23.09,38.19.54,9.21.43,14.22,2,17.55,3.26a31.31,31.31,0,0,1,17.93,17.94c1.29,3.32,2.83,8.32,3.25,17.54.46,10,.56,13,.56,38.17s-.1,28.22-.56,38.18c-.42,9.21-2,14.22-3.25,17.54a31.33,31.33,0,0,1-17.93,17.93c-3.33,1.3-8.34,2.83-17.55,3.25-10,.46-12.95.56-38.19.56s-28.22-.1-38.19-.56c-9.21-.42-14.21-2-17.54-3.25a31.31,31.31,0,0,1-17.94-17.93c-1.3-3.33-2.84-8.33-3.26-17.55-.45-10-.54-13-.54-38.19s.09-28.21.54-38.18c.42-9.21,2-14.21,3.26-17.54A31.29,31.29,0,0,1,72.25,54.27C75.58,53,80.58,51.43,89.79,51c8.72-.39,12.1-.51,29.71-.53Zm58.93,15.69a11.34,11.34,0,1,0,11.34,11.34,11.34,11.34,0,0,0-11.34-11.34ZM128,79.44A48.53,48.53,0,1,0,176.51,128,48.54,48.54,0,0,0,128,79.44Zm0,17A31.51,31.51,0,1,1,96.48,128,31.5,31.5,0,0,1,128,96.47Z" fill="#fff"/></svg>