<svg id="imageBlob" width="688.24" height="607.15" viewBox="0 0 688.24 607.15">
  <path class="opacity-0 bottom-blob" d="M606.69,166.75c34.88,65.48,72.09,126.11,80.13,201.13,7.46,75.3-14.25,165-72.4,206.79-58.56,41.66-153.3,36-232.86,22.78s-144-33.85-204.64-69.13c-60.51-35.69-117.45-85.58-149.09-157-32.22-71.16-39.45-163,4.92-221.91,44-59,138.93-84.66,226.06-110.84,87.56-26,166.68-52.31,223-30.35C538,30.57,571.39,101.15,606.69,166.75Z" fill="#6b46c1"/>
  <path class="opacity-0 middle-blob" d="M327.34,76.18C397.82,91.61,465.57,102.89,530.11,140,594.58,177.6,655.83,241,660,299.81c3.83,59-48.88,113.44-99.91,154.49S459.66,523,400.42,540.16C340.93,557,271.81,563.75,198.17,543,124.47,522.8,46.75,475.77,21.86,415.81c-25.21-59.77,2.33-132,25.49-199.64C70.83,148.3,89.86,85.44,136.16,63.43,182.72,41.76,256.55,61,327.34,76.18Z" fill="#9f7aea"/>
  <path class="opacity-0 top-blob" d="M520,189.43c36.58,51.21,74.74,98.47,88.85,158.16,13.63,59.93,3.22,132.3-43.47,167.56-47.06,35.17-130.11,33.64-200.66,25.66s-128.59-22.45-184.77-48.69C123.82,465.53,69.5,427.49,35.17,371.42c-34.8-55.83-49.81-129-16.73-177.49,32.69-48.54,113-72.1,186.38-95.8C278.61,74.51,345,51,396.18,66.73,447.23,82.81,483,138.14,520,189.43Z" fill="#e2e8f0"/>
</svg>