<?xml version="1.0" standalone="no"?>
<svg viewBox="0 0 200 200" xmlns="http://www.w3.org/2000/svg">
  <path id="blob1" fill="#6B46C1" d="M38.3,-46.8C51,-34.9,63.8,-24.2,71.6,-8.5C79.3,7.3,82,28.1,73.1,40.9C64.1,53.7,43.6,58.6,25.7,60.9C7.8,63.2,-7.5,62.9,-23.2,59.2C-38.9,55.4,-55,48.3,-67.5,34.9C-80.1,21.6,-89.1,2.2,-84.5,-13.4C-80,-29,-62,-40.7,-45.7,-52C-29.3,-63.3,-14.7,-74.1,-1,-73C12.7,-71.8,25.5,-58.7,38.3,-46.8Z" transform="translate(100 100)" />
  <path id="blob2" fill="#6B46C1" d="M28.1,-42.2C34,-28.6,34.7,-17.4,39.5,-4.8C44.3,7.8,53.3,21.9,50.1,30.5C47,39.1,31.8,42.3,16.9,48.6C2.1,54.9,-12.4,64.3,-20,59.5C-27.5,54.7,-28.2,35.7,-37.1,21C-46.1,6.3,-63.4,-3.9,-66.8,-16.5C-70.3,-29.2,-59.9,-44.1,-46.5,-56.4C-33,-68.7,-16.5,-78.4,-2.7,-75.2C11.1,-72,22.2,-55.9,28.1,-42.2Z" transform="translate(100 100)" /><path id="blob3" fill="#6B46C1" d="M51.6,-56.1C65.2,-50,73.7,-32.2,69.6,-17.8C65.5,-3.4,48.9,7.6,38.2,18.3C27.5,28.9,22.8,39.2,15.4,41.5C8,43.8,-1.9,38.3,-17.2,37.1C-32.5,36,-53.1,39.3,-60.7,32.1C-68.4,25,-63.1,7.4,-61.4,-12.4C-59.8,-32.1,-61.8,-54,-52.1,-60.9C-42.5,-67.7,-21.2,-59.4,-1.2,-58C18.9,-56.7,37.9,-62.2,51.6,-56.1Z" transform="translate(100 100)" />
</svg>
